<svg width="12" height="22" viewBox="0 0 12 22" fill="none" xmlns="http://www.w3.org/2000/svg">
<path d="M9.58579 11L0.292893 20.2929C0.105357 20.4804 0 20.7348 0 21C0 21.2652 0.105357 21.5196 0.292893 21.7071C0.48043 21.8946 0.734784 22 1 22C1.26522 22 1.51957 21.8946 1.70711 21.7071L11.7071 11.7071C12.0976 11.3166 12.0976 10.6834 11.7071 10.2929L1.70711 0.292893C1.51957 0.105357 1.26522 0 1 0C0.734784 0 0.48043 0.105357 0.292893 0.292893C0.105357 0.48043 0 0.734784 0 1C0 1.26522 0.105357 1.51957 0.292893 1.70711L9.58579 11Z" fill="#FFF"/>
</svg>
