<svg width="17" height="17" viewBox="0 0 17 17" fill="none" xmlns="http://www.w3.org/2000/svg">
<path fill-rule="evenodd" clip-rule="evenodd" d="M4.83454 0.927734C4.54735 0.927734 4.31454 1.16055 4.31454 1.44773V2.12773H4.31389V4.12528C4.31389 4.41247 4.08108 4.64528 3.79389 4.64528H3.18731C2.90012 4.64528 2.66731 4.41247 2.66731 4.12528V2.12773H1.89956C1.32518 2.12773 0.859558 2.59336 0.859558 3.16773V15.4877C0.859558 16.0621 1.32518 16.5277 1.89956 16.5277H15.0196C15.5939 16.5277 16.0596 16.0621 16.0596 15.4877V3.16773C16.0596 2.59336 15.5939 2.12773 15.0196 2.12773H14.8186L14.6027 1.321C14.5418 1.0936 14.3358 0.935449 14.1004 0.935449H12.6508C12.3637 0.935449 12.1308 1.16826 12.1308 1.45545V2.12773V4.12528C12.1308 4.41247 11.898 4.64528 11.6108 4.64528H11.0043C10.7171 4.64528 10.4843 4.41247 10.4843 4.12528V2.12773H6.99902L6.78522 1.31538C6.72509 1.08695 6.51856 0.927734 6.28234 0.927734H4.83454ZM11.7675 7.93966C11.7675 7.65247 12.0003 7.41966 12.2875 7.41966H13.9355C14.2227 7.41966 14.4555 7.65247 14.4555 7.93966V9.58766C14.4555 9.87485 14.2227 10.1077 13.9355 10.1077H12.2875C12.0003 10.1077 11.7675 9.87485 11.7675 9.58766V7.93966ZM7.71214 7.41966C7.42496 7.41966 7.19214 7.65247 7.19214 7.93966V9.58766C7.19214 9.87485 7.42496 10.1077 7.71214 10.1077H9.36014C9.64733 10.1077 9.88014 9.87485 9.88014 9.58766V7.93966C9.88014 7.65247 9.64733 7.41966 9.36014 7.41966H7.71214ZM2.61682 7.93966C2.61682 7.65247 2.84963 7.41966 3.13682 7.41966H4.78482C5.07201 7.41966 5.30482 7.65247 5.30482 7.93966V9.58766C5.30482 9.87485 5.07201 10.1077 4.78482 10.1077H3.13682C2.84963 10.1077 2.61682 9.87485 2.61682 9.58766V7.93966ZM7.71214 12.1822C7.42496 12.1822 7.19214 12.415 7.19214 12.7022V14.3502C7.19214 14.6374 7.42496 14.8702 7.71214 14.8702H9.36014C9.64733 14.8702 9.88014 14.6374 9.88014 14.3502V12.7022C9.88014 12.415 9.64733 12.1822 9.36014 12.1822H7.71214ZM2.61682 12.7022C2.61682 12.415 2.84963 12.1822 3.13682 12.1822H4.78482C5.07201 12.1822 5.30482 12.415 5.30482 12.7022V14.3502C5.30482 14.6374 5.07201 14.8702 4.78482 14.8702H3.13682C2.84963 14.8702 2.61682 14.6374 2.61682 14.3502V12.7022Z" fill="#43444B"/>
</svg>
