<svg width="17" height="17" viewBox="0 0 17 17" fill="none" xmlns="http://www.w3.org/2000/svg">
<path fill-rule="evenodd" clip-rule="evenodd" d="M1.89956 0.944336C1.32518 0.944336 0.859558 1.40996 0.859558 1.98434V15.1043C0.859558 15.6787 1.32518 16.1443 1.89956 16.1443H15.0196C15.5939 16.1443 16.0596 15.6787 16.0596 15.1043V1.98434C16.0596 1.40996 15.5939 0.944336 15.0196 0.944336H1.89956ZM3.85286 4.64639C3.56568 4.64639 3.33286 4.8792 3.33286 5.16639V12.9084C3.33286 13.1956 3.56568 13.4284 3.85287 13.4284H4.73286C5.02005 13.4284 5.25286 13.1956 5.25286 12.9084V5.16639C5.25286 4.8792 5.02005 4.64639 4.73286 4.64639H3.85286ZM7.49956 7.76337C7.49956 7.47618 7.73237 7.24337 8.01956 7.24337H8.89956C9.18675 7.24337 9.41956 7.47618 9.41956 7.76337V12.9084C9.41956 13.1956 9.18675 13.4284 8.89956 13.4284H8.01956C7.73237 13.4284 7.49956 13.1956 7.49956 12.9084V7.76337ZM12.1863 9.84479C11.8991 9.84479 11.6663 10.0776 11.6663 10.3648V12.9084C11.6663 13.1956 11.8991 13.4284 12.1863 13.4284H13.0663C13.3534 13.4284 13.5863 13.1956 13.5863 12.9084V10.3648C13.5863 10.0776 13.3534 9.84479 13.0663 9.84479H12.1863Z" fill="#43444B"/>
</svg>
