<svg width="16" height="16" viewBox="0 0 16 16" fill="none" xmlns="http://www.w3.org/2000/svg">
<path fill-rule="evenodd" clip-rule="evenodd" d="M1.9927 0.229004C1.41832 0.229004 0.952698 0.694627 0.952698 1.269V13.829C0.952698 14.7127 1.66904 15.429 2.5527 15.429H4.47004H12.0006H14.3664C15.25 15.429 15.9664 14.7127 15.9664 13.829V4.45748C15.9664 3.8831 15.5007 3.41748 14.9264 3.41748H13.0406V1.269C13.0406 0.694628 12.575 0.229004 12.0006 0.229004H1.9927ZM2.80748 2.79195C2.80748 2.50476 3.04029 2.27195 3.32748 2.27195H10.7074C10.9946 2.27195 11.2274 2.50476 11.2274 2.79195V5.30891C11.2274 5.59609 10.9946 5.82891 10.7074 5.82891H3.32748C3.04029 5.82891 2.80748 5.59609 2.80748 5.30891V2.79195ZM3.32748 7.829C3.04029 7.829 2.80748 8.06182 2.80748 8.349V9.077C2.80748 9.36419 3.04029 9.597 3.32748 9.597H10.7074C10.9946 9.597 11.2274 9.36419 11.2274 9.077V8.349C11.2274 8.06182 10.9946 7.829 10.7074 7.829H3.32748ZM2.80748 11.6245C2.80748 11.3374 3.04029 11.1045 3.32748 11.1045H8.53231C8.8195 11.1045 9.05231 11.3374 9.05231 11.6245V12.3525C9.05231 12.6397 8.8195 12.8725 8.53231 12.8725H3.32748C3.04029 12.8725 2.80748 12.6397 2.80748 12.3525V11.6245ZM14.1668 5.82891H12.3988V12.3741C12.3988 12.8623 12.7946 13.2581 13.2828 13.2581C13.771 13.2581 14.1668 12.8623 14.1668 12.3741V5.82891Z" fill="#43444B"/>
</svg>
