<svg width="23" height="26" viewBox="0 0 23 26" fill="none" xmlns="http://www.w3.org/2000/svg">
<path d="M21.0375 11.2875L3.03751 0.29996C2.73768 0.109956 2.39141 0.00597289 2.03651 -0.000640198C1.68161 -0.00725329 1.33171 0.0837584 1.02501 0.26246C0.713773 0.433218 0.454317 0.684709 0.27394 0.990471C0.0935623 1.29623 -0.00106682 1.64496 9.07295e-06 1.99996V24C-0.00106682 24.355 0.0935623 24.7037 0.27394 25.0094C0.454317 25.3152 0.713773 25.5667 1.02501 25.7375C1.33171 25.9162 1.68161 26.0072 2.03651 26.0006C2.39141 25.9939 2.73768 25.89 3.03751 25.7L21.0375 14.7125C21.3325 14.5345 21.5766 14.2833 21.746 13.9833C21.9154 13.6832 22.0044 13.3445 22.0044 13C22.0044 12.6554 21.9154 12.3167 21.746 12.0167C21.5766 11.7166 21.3325 11.4654 21.0375 11.2875Z" fill="white"/>
</svg>
