<svg width="14" height="18" viewBox="0 0 14 18" fill="none" xmlns="http://www.w3.org/2000/svg">
<path d="M13.1484 7.92966L1.89844 1.06247C1.71105 0.943723 1.49463 0.878733 1.27282 0.8746C1.05101 0.870467 0.832318 0.927349 0.64063 1.03904C0.446108 1.14576 0.283948 1.30294 0.171212 1.49404C0.0584764 1.68515 -0.000666762 1.9031 5.67059e-06 2.12497V15.875C-0.000666762 16.0968 0.0584764 16.3148 0.171212 16.5059C0.283948 16.697 0.446108 16.8542 0.64063 16.9609C0.832318 17.0726 1.05101 17.1295 1.27282 17.1253C1.49463 17.1212 1.71105 17.0562 1.89844 16.9375L13.1484 10.0703C13.3328 9.95905 13.4854 9.80206 13.5912 9.61454C13.6971 9.42701 13.7527 9.21532 13.7527 8.99997C13.7527 8.78463 13.6971 8.57294 13.5912 8.38541C13.4854 8.19789 13.3328 8.0409 13.1484 7.92966Z" fill="#1C1C1C"/>
</svg>
