<svg width="35" height="35" viewBox="0 0 35 35" fill="none" xmlns="http://www.w3.org/2000/svg">
<rect width="35" height="35" rx="2" fill="#2A2B31"/>
<path fill-rule="evenodd" clip-rule="evenodd" d="M18 18C20.21 18 22 16.21 22 14C22 11.79 20.21 10 18 10C15.79 10 14 11.79 14 14C14 16.21 15.79 18 18 18ZM18 20C15.33 20 10 21.34 10 24V26H26V24C26 21.34 20.67 20 18 20Z" fill="#43444B"/>
<mask id="mask0_0_899" style="mask-type:alpha" maskUnits="userSpaceOnUse" x="10" y="10" width="16" height="16">
<path fill-rule="evenodd" clip-rule="evenodd" d="M18 18C20.21 18 22 16.21 22 14C22 11.79 20.21 10 18 10C15.79 10 14 11.79 14 14C14 16.21 15.79 18 18 18ZM18 20C15.33 20 10 21.34 10 24V26H26V24C26 21.34 20.67 20 18 20Z" fill="white"/>
</mask>
<g mask="url(#mask0_0_899)">
</g>
</svg>
