<svg width="15" height="17" viewBox="0 0 15 17" fill="none" xmlns="http://www.w3.org/2000/svg">
<path fill-rule="evenodd" clip-rule="evenodd" d="M6.20954 0.311035C6.05406 0.311035 5.92232 0.425496 5.9006 0.579441L5.71873 1.86828C2.58176 2.64685 0.256714 5.48157 0.256714 8.85933C0.256714 12.8373 3.48153 16.0622 7.45955 16.0622C11.4376 16.0622 14.6624 12.8373 14.6624 8.85933C14.6624 5.48428 12.3411 2.65139 9.20792 1.87015L9.03054 0.580523C9.0093 0.426092 8.87733 0.311035 8.72145 0.311035H6.20954ZM7.01955 4.35832C6.73236 4.35832 6.49955 4.59113 6.49955 4.87832V9.83778H8.41955V4.87832C8.41955 4.59113 8.18674 4.35832 7.89955 4.35832H7.01955ZM11.821 9.73173C12.0911 9.82982 12.2304 10.1283 12.1321 10.3983L11.8313 11.2249C11.7331 11.4948 11.4347 11.634 11.1648 11.5357L6.50443 9.83949H8.41992V8.49651L11.821 9.73173Z" fill="#43444B"/>
</svg>
