<svg width="20" height="20" viewBox="0 0 48 48" fill="none" xmlns="http://www.w3.org/2000/svg">
<path d="M46.0688 14.5688L40.4063 20.2126C39.2813 33.3188 28.2188 43.5001 15 43.5001C12.2813 43.5001 10.0313 43.0688 8.32501 42.2251C6.95626 41.5313 6.39376 40.8001 6.24376 40.5751C6.11965 40.3865 6.03968 40.1725 6.00981 39.9488C5.97993 39.7251 6.00091 39.4975 6.0712 39.283C6.14149 39.0686 6.25926 38.8727 6.41575 38.7101C6.57224 38.5475 6.76341 38.4223 6.97501 38.3438C7.01251 38.3251 11.4375 36.6376 14.3063 33.3938C12.5272 32.127 10.9634 30.5823 9.67501 28.8188C7.10626 25.3313 4.38751 19.2751 6.01876 10.2376C6.07004 9.96888 6.19293 9.71904 6.37444 9.51442C6.55596 9.3098 6.78937 9.158 7.05001 9.07505C7.31149 8.98944 7.59147 8.97738 7.85934 9.04022C8.12721 9.10305 8.37263 9.23835 8.56876 9.4313C8.62501 9.5063 14.8688 15.6563 22.5 17.6438V16.5001C22.5074 15.3108 22.7489 14.1346 23.2109 13.0386C23.6728 11.9427 24.3461 10.9485 25.1922 10.1127C26.0384 9.27701 27.0409 8.61613 28.1425 8.16785C29.2441 7.71956 30.4232 7.49264 31.6125 7.50005C33.1734 7.52232 34.702 7.94852 36.0492 8.73714C37.3964 9.52576 38.5164 10.6499 39.3 12.0001H45C45.2962 11.9991 45.5859 12.0859 45.8329 12.2494C46.0798 12.4129 46.2728 12.6458 46.3875 12.9188C46.4956 13.1959 46.523 13.4979 46.4666 13.7899C46.4102 14.0819 46.2723 14.3519 46.0688 14.5688Z" fill="#414554"/>
</svg>
