<svg width="17" height="17" viewBox="0 0 17 17" fill="none" xmlns="http://www.w3.org/2000/svg">
<path fill-rule="evenodd" clip-rule="evenodd" d="M1.89956 0.560547C1.32518 0.560547 0.859558 1.02617 0.859558 1.60055V15.1205C0.859558 15.6949 1.32518 16.1605 1.89956 16.1605H14.6206C15.195 16.1605 15.6606 15.6949 15.6606 15.1205L15.6606 13.5605H6.97543C6.40105 13.5605 5.93543 13.0949 5.93543 12.5205V4.20055C5.93543 3.62617 6.40106 3.16055 6.97543 3.16055H15.6606L15.6606 1.60055C15.6606 1.02617 15.195 0.560547 14.6206 0.560547H1.89956ZM7.89672 5.76055C7.89672 5.18617 8.36235 4.72055 8.93672 4.72055H15.0196C15.5939 4.72055 16.0596 5.18617 16.0596 5.76055V10.9605C16.0596 11.5349 15.5939 12.0005 15.0196 12.0005H8.93672C8.36235 12.0005 7.89672 11.5349 7.89672 10.9605V5.76055ZM10.4639 7.0206C10.1768 7.0206 9.94394 7.25342 9.94394 7.5406V9.1886C9.94394 9.47579 10.1768 9.7086 10.4639 9.7086H11.9306C12.2178 9.7086 12.4506 9.47579 12.4506 9.1886V7.5406C12.4506 7.25342 12.2178 7.0206 11.9306 7.0206H10.4639Z" fill="#43444B"/>
</svg>
